<svg width="1200" height="630" viewBox="0 0 1200 630" xmlns="http://www.w3.org/2000/svg">

  <defs>
    <linearGradient id="bg" x1="0" y1="0" x2="1" y2="1">
      <stop offset="0" stop-color="#06070A"/>
      <stop offset="0.55" stop-color="#090A0C"/>
      <stop offset="1" stop-color="#101215"/>
    </linearGradient>
    <radialGradient id="halo" cx="0.5" cy="0.5" r="0.5">
      <stop offset="0" stop-color="#9A7CFF" stop-opacity="0.30"/>
      <stop offset="0.55" stop-color="#9A7CFF" stop-opacity="0.07"/>
      <stop offset="1" stop-color="#9A7CFF" stop-opacity="0"/>
    </radialGradient>
    <radialGradient id="nodeGlow" cx="0.5" cy="0.5" r="0.5">
      <stop offset="0" stop-color="#B7A2FF" stop-opacity="0.55"/>
      <stop offset="1" stop-color="#B7A2FF" stop-opacity="0"/>
    </radialGradient>
    <linearGradient id="leftFade" x1="0" y1="0" x2="1" y2="0">
      <stop offset="0" stop-color="#06070A" stop-opacity="1"/>
      <stop offset="0.42" stop-color="#06070A" stop-opacity="0.92"/>
      <stop offset="0.72" stop-color="#06070A" stop-opacity="0"/>
    </linearGradient>
  </defs>
  <rect width="1200" height="630" fill="url(#bg)"/>
  <ellipse cx="920" cy="300" rx="340" ry="320" fill="url(#halo)"/>
  <line x1="1042.7" y1="288.3" x2="1056.9" y2="261.0" stroke="#6A4ED6" stroke-width="1.25" stroke-opacity="0.55"/>
<line x1="1042.7" y1="288.3" x2="1008.8" y2="276.7" stroke="#6A4ED6" stroke-width="1.25" stroke-opacity="0.55"/>
<line x1="1028.0" y1="206.5" x2="1006.8" y2="211.4" stroke="#22252A" stroke-width="1.25" stroke-opacity="0.53"/>
<line x1="1018.1" y1="241.5" x2="1006.8" y2="211.4" stroke="#30353C" stroke-width="1.25" stroke-opacity="0.46"/>
<line x1="1018.1" y1="241.5" x2="1056.9" y2="261.0" stroke="#22252A" stroke-width="1.25" stroke-opacity="0.46"/>
<line x1="954.7" y1="180.5" x2="959.2" y2="218.1" stroke="#6A4ED6" stroke-width="1.25" stroke-opacity="0.55"/>
<line x1="1028.0" y1="206.5" x2="1075.0" y2="199.3" stroke="#22252A" stroke-width="1.25" stroke-opacity="0.45"/>
<line x1="913.5" y1="436.7" x2="939.1" y2="457.9" stroke="#30353C" stroke-width="1.25" stroke-opacity="0.53"/>
<line x1="913.5" y1="436.7" x2="913.8" y2="475.1" stroke="#22252A" stroke-width="1.25" stroke-opacity="0.46"/>
<line x1="876.6" y1="329.7" x2="902.2" y2="374.6" stroke="#30353C" stroke-width="1.25" stroke-opacity="0.44"/>
<line x1="913.8" y1="475.1" x2="939.1" y2="457.9" stroke="#6A4ED6" stroke-width="1.25" stroke-opacity="0.55"/>
<line x1="890.5" y1="381.4" x2="883.7" y2="383.4" stroke="#22252A" stroke-width="1.25" stroke-opacity="0.59"/>
<line x1="890.5" y1="381.4" x2="902.2" y2="374.6" stroke="#6A4ED6" stroke-width="1.25" stroke-opacity="0.55"/>
<line x1="926.0" y1="347.6" x2="902.2" y2="374.6" stroke="#22252A" stroke-width="1.25" stroke-opacity="0.56"/>
<line x1="1161.0" y1="445.9" x2="1130.8" y2="462.5" stroke="#22252A" stroke-width="1.25" stroke-opacity="0.56"/>
<line x1="1115.4" y1="465.6" x2="1106.3" y2="465.7" stroke="#22252A" stroke-width="1.25" stroke-opacity="0.41"/>
<line x1="1115.4" y1="465.6" x2="1127.6" y2="466.9" stroke="#30353C" stroke-width="1.25" stroke-opacity="0.51"/>
<line x1="1127.6" y1="466.9" x2="1130.8" y2="462.5" stroke="#6A4ED6" stroke-width="1.25" stroke-opacity="0.55"/>
<line x1="1115.4" y1="465.6" x2="1130.8" y2="462.5" stroke="#6A4ED6" stroke-width="1.25" stroke-opacity="0.55"/>
<line x1="1125.0" y1="487.3" x2="1133.7" y2="494.6" stroke="#30353C" stroke-width="1.25" stroke-opacity="0.51"/>
<line x1="1127.6" y1="466.9" x2="1125.0" y2="487.3" stroke="#22252A" stroke-width="1.25" stroke-opacity="0.58"/>
<line x1="1127.6" y1="466.9" x2="1133.7" y2="494.6" stroke="#30353C" stroke-width="1.25" stroke-opacity="0.49"/>
<line x1="1035.8" y1="135.7" x2="1051.2" y2="111.4" stroke="#6A4ED6" stroke-width="1.25" stroke-opacity="0.55"/>
<line x1="971.5" y1="97.6" x2="1002.5" y2="99.7" stroke="#6A4ED6" stroke-width="1.25" stroke-opacity="0.55"/>
<line x1="971.5" y1="97.6" x2="985.8" y2="145.0" stroke="#30353C" stroke-width="1.25" stroke-opacity="0.45"/>
<line x1="1051.2" y1="111.4" x2="1002.5" y2="99.7" stroke="#30353C" stroke-width="1.25" stroke-opacity="0.41"/>
<line x1="1002.5" y1="99.7" x2="985.8" y2="145.0" stroke="#22252A" stroke-width="1.25" stroke-opacity="0.54"/>
<line x1="954.7" y1="180.5" x2="985.8" y2="145.0" stroke="#22252A" stroke-width="1.25" stroke-opacity="0.63"/>
<line x1="1200.0" y1="298.1" x2="1187.6" y2="284.5" stroke="#6A4ED6" stroke-width="1.25" stroke-opacity="0.55"/>
<line x1="1200.0" y1="298.1" x2="1200.0" y2="318.8" stroke="#22252A" stroke-width="1.25" stroke-opacity="0.62"/>
<line x1="1148.6" y1="228.2" x2="1144.3" y2="252.8" stroke="#22252A" stroke-width="1.25" stroke-opacity="0.55"/>
<line x1="1109.1" y1="312.0" x2="1144.3" y2="252.8" stroke="#22252A" stroke-width="1.25" stroke-opacity="0.54"/>
<line x1="1187.6" y1="284.5" x2="1200.0" y2="318.8" stroke="#30353C" stroke-width="1.25" stroke-opacity="0.53"/>
<circle cx="1042.7" cy="288.3" r="3.4" fill="#767D85" fill-opacity="0.81"/>
<circle cx="1028.0" cy="206.5" r="44.7" fill="url(#nodeGlow)"/>
<circle cx="1028.0" cy="206.5" r="8.9" fill="#B7A2FF"/>
<circle cx="1018.1" cy="241.5" r="42.3" fill="url(#nodeGlow)"/>
<circle cx="1018.1" cy="241.5" r="8.5" fill="#9A7CFF"/>
<circle cx="1056.9" cy="261.0" r="39.6" fill="url(#nodeGlow)"/>
<circle cx="1056.9" cy="261.0" r="7.9" fill="#B7A2FF"/>
<circle cx="954.7" cy="180.5" r="4.2" fill="#3D444D" fill-opacity="0.55"/>
<circle cx="1075.0" cy="199.3" r="30.4" fill="url(#nodeGlow)"/>
<circle cx="1075.0" cy="199.3" r="6.1" fill="#B7A2FF"/>
<circle cx="1006.8" cy="211.4" r="42.5" fill="url(#nodeGlow)"/>
<circle cx="1006.8" cy="211.4" r="8.5" fill="#B7A2FF"/>
<circle cx="1008.8" cy="276.7" r="2.4" fill="#767D85" fill-opacity="0.80"/>
<circle cx="959.2" cy="218.1" r="5.6" fill="#767D85" fill-opacity="0.78"/>
<circle cx="913.5" cy="436.7" r="5.0" fill="#767D85" fill-opacity="0.60"/>
<circle cx="876.6" cy="329.7" r="5.6" fill="#767D85" fill-opacity="0.61"/>
<circle cx="913.8" cy="475.1" r="3.7" fill="#9A7CFF" fill-opacity="0.90"/>
<circle cx="890.5" cy="381.4" r="5.0" fill="#767D85" fill-opacity="0.78"/>
<circle cx="883.7" cy="383.4" r="5.6" fill="#767D85" fill-opacity="0.88"/>
<circle cx="926.0" cy="347.6" r="4.0" fill="#767D85" fill-opacity="0.83"/>
<circle cx="902.2" cy="374.6" r="5.1" fill="#9A7CFF" fill-opacity="0.90"/>
<circle cx="939.1" cy="457.9" r="4.2" fill="#767D85" fill-opacity="0.61"/>
<circle cx="1161.0" cy="445.9" r="3.2" fill="#3D444D" fill-opacity="0.61"/>
<circle cx="1115.4" cy="465.6" r="2.4" fill="#9A7CFF" fill-opacity="0.90"/>
<circle cx="1106.3" cy="465.7" r="2.5" fill="#9A7CFF" fill-opacity="0.90"/>
<circle cx="1127.6" cy="466.9" r="5.2" fill="#3D444D" fill-opacity="0.61"/>
<circle cx="1130.8" cy="462.5" r="3.7" fill="#767D85" fill-opacity="0.68"/>
<circle cx="1125.0" cy="487.3" r="3.6" fill="#767D85" fill-opacity="0.83"/>
<circle cx="1133.7" cy="494.6" r="4.1" fill="#3D444D" fill-opacity="0.75"/>
<circle cx="1035.8" cy="135.7" r="3.3" fill="#767D85" fill-opacity="0.58"/>
<circle cx="971.5" cy="97.6" r="3.2" fill="#767D85" fill-opacity="0.82"/>
<circle cx="1051.2" cy="111.4" r="3.8" fill="#767D85" fill-opacity="0.64"/>
<circle cx="1002.5" cy="99.7" r="3.6" fill="#767D85" fill-opacity="0.69"/>
<circle cx="985.8" cy="145.0" r="5.5" fill="#3D444D" fill-opacity="0.67"/>
<circle cx="1200.0" cy="298.1" r="4.1" fill="#767D85" fill-opacity="0.75"/>
<circle cx="1148.6" cy="228.2" r="5.6" fill="#3D444D" fill-opacity="0.70"/>
<circle cx="1109.1" cy="312.0" r="4.6" fill="#767D85" fill-opacity="0.78"/>
<circle cx="1144.3" cy="252.8" r="2.9" fill="#3D444D" fill-opacity="0.76"/>
<circle cx="1187.6" cy="284.5" r="5.1" fill="#3D444D" fill-opacity="0.58"/>
<circle cx="1200.0" cy="318.8" r="4.6" fill="#767D85" fill-opacity="0.66"/>

  <rect width="1200" height="630" fill="url(#leftFade)"/>
</svg>